# xmcd
#
# Track frame offsets:
#	150
#	25020
#	59498
#	79218
#	110707
#	128936
#	167168
#	192381
#	221611
#	268232
#	294498
#
# Disc length: 4333 seconds
#
# Revision: 0
# Processed by: cddbd v1.4PL0 Copyright (c) Steve Scherf et al.
# Submitted via: audiograbber 1.81.03
#
DISCID=ab10eb0b
DTITLE=Led Zeppelin - Remasters [CD 2)
DYEAR=1992
DGENRE=Rock
TTITLE0=The Song Remains The Same
TTITLE1=The Rain Song
TTITLE2=D'yer Mak'er
TTITLE3=No Quarter
TTITLE4=Houses Of The Holy
TTITLE5=Kashmir
TTITLE6=Trampled Underfoot
TTITLE7=Nobody's Fault But Mine
TTITLE8=Achilles Last Stand
TTITLE9=All My Love
TTITLE10=In The Evening
EXTD=
EXTT0=
EXTT1=
EXTT2=
EXTT3=
EXTT4=
EXTT5=
EXTT6=
EXTT7=
EXTT8=
EXTT9=
EXTT10=
PLAYORDER=
